# xmcd CD database file
# Copyright (C) 1997 Ti Kan
# 
# Track frame offsets:
#     150
#     16765
#     31377
#     44250
#     59272
#     76850
#     96155
#     112620
#     131592
#     146365
#     165912
#     180825
#     192227
#     206705
#     226527
#     238585
#     255160
#     272080
# 
# Disc length: 3816 seconds
# 
# Revision: 1
# Processed by: cddbd v1.4b41PL1 Copyright (c) Steve Scherf et al.
# Submitted via: DiscPlay 4.0.4
# 
DISCID=d00ee612
DTITLE=KENNY ROGERS - SWEET MUSIC MAN- DISC. 1
DYEAR=1900
DGENRE=
TTITLE0=LUCILLE
TTITLE1=BUT YOU KNOW I LOVE YOU
TTITLE2=RUBY, DON'T TAKE YOUR LOVE TO TOWN
TTITLE3='TILL I CAN MAKE IT ON MY OWN
TTITLE4=SCARLET FEVER
TTITLE5=ABRAHAM, MARTIN AND JOHN
TTITLE6=YOU DECORATED MY LIFE
TTITLE7=SHE BELIEVES IN ME
TTITLE8=A LOVE SONG
TTITLE9=SOMETHING'S BURNING
TTITLE10=SHARE YOUR LOVE WITH ME
TTITLE11=FIGHTIN' FIRE WITH FIRE
TTITLE12=DAYTIME FRIENDS
TTITLE13=THROUGH THE YEARS
TTITLE14=REUBEN JAMES
TTITLE15=DON'T FALL IN LOVE WITH A DREAMER
TTITLE16=DESPERADO
TTITLE17=THE SON OF HICKORY HOLLER'S TRAMP
EXTD=
EXTT0=
EXTT1=
EXTT2=
EXTT3=
EXTT4=
EXTT5=
EXTT6=
EXTT7=
EXTT8=
EXTT9=
EXTT10=
EXTT11=
EXTT12=
EXTT13=
EXTT14=
EXTT15=
EXTT16=
EXTT17=
PLAYORDER=
